<?xml version="1.0" encoding="UTF-8" standalone="no"?>
<!-- Created with Inkscape (http://www.inkscape.org/) -->

<svg
   width="256"
   height="256"
   viewBox="0 0 67.733334 67.733334"
   version="1.1"
   id="svg5"
   xml:space="preserve"
   inkscape:version="1.2.1 (9c6d41e4, 2022-07-14)"
   sodipodi:docname="icon.svg"
   xmlns:inkscape="http://www.inkscape.org/namespaces/inkscape"
   xmlns:sodipodi="http://sodipodi.sourceforge.net/DTD/sodipodi-0.dtd"
   xmlns="http://www.w3.org/2000/svg"
   xmlns:svg="http://www.w3.org/2000/svg"><sodipodi:namedview
     id="namedview7"
     pagecolor="#ffffff"
     bordercolor="#666666"
     borderopacity="1.0"
     inkscape:showpageshadow="2"
     inkscape:pageopacity="0.0"
     inkscape:pagecheckerboard="0"
     inkscape:deskcolor="#d1d1d1"
     inkscape:document-units="mm"
     showgrid="false"
     inkscape:zoom="0.84096521"
     inkscape:cx="274.68437"
     inkscape:cy="292.52102"
     inkscape:window-width="1181"
     inkscape:window-height="800"
     inkscape:window-x="108"
     inkscape:window-y="26"
     inkscape:window-maximized="0"
     inkscape:current-layer="layer1" /><defs
     id="defs2" /><g
     inkscape:label="Layer 1"
     inkscape:groupmode="layer"
     id="layer1"><g
       id="g4099"
       transform="matrix(0.78705747,0,0,0.78705747,14.853989,18.040434)"><g
         id="color"><path
           fill="#a57939"
           d="m 23,34 c 0,0 -1.5,-3 -1,-5 0.3,-1.2 1.3,-1.8 3,-3 1.6,-1.1 2,-1.7 3,-2 0.7,-2.5 1.5,-4.5 2,-7 0.2624,-1.3501 0.5962,-2.6853 1,-4 3.1022,1.4756 6.1082,3.1456 9,5 2.3,1.5 3.5,2.4 4,4 0.6,2.1 -0.5,4.1 -1,5 1.733,-0.395 3.5522,-0.0312 5,1 1.0498,0.6835 1.7728,1.7681 2,3 0.2183,1.4136 -0.1422,2.8555 -1,4 1.3967,-0.0125 2.7735,0.3317 4,1 1.3238,0.613 2.387,1.6762 3,3 0.7,1.9 -0.2,4.3 -2,6 1.4142,-0.2318 2.8613,0.13 4,1 1.5089,1.192 2.2706,3.0962 2,5 -0.5,3.5 -4.6,4.9 -5,5 -2.2,0.7 -5.3,0.2 -10.2,-0.4 C 40.4,55 32.8,55.2 26.8,55.2 21.3,56.3 14,54 14,51 c 0,-2.7 2.3,-4.5 3,-5 0.6347,-0.3938 1.3042,-0.7285 2,-1 -1,-2 -2,-3 -2,-4 0,-1.2 1.1,-3.2 3,-5 2.1,-2.1 3,-2 3,-2 z"
           id="path4063" /><path
           fill="#6a462f"
           d="m 31,13 c 3.1022,1.4756 6.1082,3.1456 9,5 2.3,1.5 3.5,2.4 4,4 0.6,2.1 -0.5,4.1 -1,5 1.733,-0.395 3.5522,-0.0312 5,1 1.0498,0.6835 1.7728,1.7681 2,3 0.2183,1.4136 -0.1422,2.8555 -1,4 1.3967,-0.0125 2.7735,0.3317 4,1 1.3238,0.613 2.387,1.6762 3,3 0.7,1.9 -0.2,4.3 -2,6 1.4142,-0.2318 2.8613,0.13 4,1 1.5089,1.192 2.2706,3.0962 2,5 -0.5,3.5 -4.6,4.9 -5,5 -2.2,0.7 -14.8,-1.2 -10,-2 6,-1 7.9,-2.7 8,-3 1,-2 -2,-4 -4,-4 0.2,-3.3 -0.7,-5.8 -6,-7 0.7,-3.2 -0.2,-8.1 -4,-9 2,-4 0.4,-7.2 -1,-10 -2,-4 -3,-6 -7,-8 z"
           id="path4065" /><ellipse
           cx="27.200001"
           cy="39.400101"
           rx="4.9000001"
           ry="6.9000001"
           fill="#ffffff"
           id="ellipse4067" /><ellipse
           cx="43.599998"
           cy="38.900101"
           rx="4.9000001"
           ry="6.9000001"
           fill="#ffffff"
           id="ellipse4069" /></g><g
         id="line"><path
           fill="none"
           stroke="#000000"
           stroke-linecap="round"
           stroke-linejoin="round"
           stroke-width="2"
           d="m 19,45 c -0.1,-0.2 -2.6,-4.1 -1,-7 1.3,-2.3 4.6,-2.9 5,-3 m 20,-8 c 0.3,-0.9 1.5,-3.4 1,-5 -0.4,-1.3 -0.9,-3 -5,-5 l -8,-4 c 0.1933,0.9907 0.1933,2.0093 0,3 -0.2,1.1 -0.7,3.3 -1,5 m 24,24 c 0.6,0.1 4.8,0.5 6,4 1,3 -2,7 -6,7 -4.3,0 -7.5,-1.2 -11.7,-1.6 M 23.6,35.1 C 23.4,35.1 23.2,35 23,35 c -0.7164,-1.2072 -1.064,-2.5977 -1,-4 0.1898,-2.5628 1.7074,-4.8391 4,-6 1.9,-0.9 2.7,-0.1 5,-1 1.5814,-0.6175 2.9644,-1.6547 4,-3 m 13.5,14.7 c 0.199,-0.2085 0.3673,-0.4442 0.5,-0.7 0.2,-0.2 1.7,-2.9 1,-5 -1,-3 -6,-2.9 -7,-3 -1.3213,1.9795 -3.0205,3.6787 -5,5 -1.8714,1.2946 -3.9774,2.2117 -6.2,2.7 m -0.5,10 c 2.9464,-0.3254 5.8185,-1.1364 8.5,-2.4 M 24.2,45 h 0.7 M 50,35 c 1.5364,0.1434 2.9634,0.8569 4,2 1.3,1.7 2.5,4.5 0,7 -2.7669,2.8203 -6.2094,4.8858 -10,6 -6,2 -15,5 -21,5 -5.1,0 -9,-1 -9,-5 0,-4.4 7.7,-4.9 10.2,-5"
           id="path4072" /><path
           fill="none"
           stroke="#000000"
           stroke-miterlimit="10"
           stroke-width="2.436"
           d="m 30.9,44.6 c -0.7483,1.0288 -1.9286,1.6558 -3.2,1.7 -2.7,0 -4.9,-3.1 -4.9,-6.9 0,-3.8 2.2,-6.9 4.9,-6.9 2.7,0 4.9,3.1 4.9,6.9 0.0207,1.8731 -0.5768,3.7008 -1.7,5.2"
           id="path4074" /><path
           fill="none"
           stroke="#000000"
           stroke-miterlimit="10"
           stroke-width="2.436"
           d="m 39.8,42.3 c -0.4095,-1.0862 -0.613,-2.2392 -0.6,-3.4 0,-3.8 2.2,-6.9 4.9,-6.9 2.7,0 4.9,3 4.9,6.9 0,3.9 -2.2,6.9 -4.9,6.9 -1.8,0 -3.4,-1.4 -4.3,-3.5"
           id="path4076" /><path
           d="m 46.1,39 c 0,1.1046 -0.8954,2 -2,2 -1.1046,0 -2,-0.8954 -2,-2 0,-1.1046 0.8954,-2 2,-2 1.1046,0 2,0.8954 2,2"
           id="path4078" /><path
           d="m 29.7,39.4 c 0,1.1046 -0.8954,2 -2,2 -1.1046,0 -2,-0.8954 -2,-2 0,-1.1046 0.8954,-2 2,-2 1.1046,0 2,0.8954 2,2"
           id="path4080" /></g></g><text
       xml:space="preserve"
       style="font-size:5.64444px;line-height:1.25;font-family:sans-serif;-inkscape-font-specification:sans-serif;text-align:center;text-anchor:middle;stroke-width:0.264583"
       x="35.237286"
       y="104.45339"
       id="text5300"><tspan
         sodipodi:role="line"
         id="tspan5298"
         style="stroke-width:0.264583"
         x="35.237286"
         y="104.45339" /></text><text
       xml:space="preserve"
       style="font-size:19.7556px;line-height:1.25;font-family:Arial;-inkscape-font-specification:Arial;text-align:center;text-anchor:middle;stroke-width:0.264583"
       x="2.5155716"
       y="19.506363"
       id="text5304"><tspan
         sodipodi:role="line"
         id="tspan5302"
         style="font-size:19.7556px;text-align:start;text-anchor:start;stroke-width:0.264583"
         x="2.5155716"
         y="19.506363">shit will</tspan><tspan
         sodipodi:role="line"
         style="font-size:19.7556px;text-align:start;text-anchor:start;stroke-width:0.264583"
         x="2.5155716"
         y="44.200863"
         id="tspan6438">be</tspan></text></g></svg>
